<?xml version="1.0"?>
<svg width="286" height="424" xmlns="http://www.w3.org/2000/svg" xmlns:svg="http://www.w3.org/2000/svg">
 <g class="layer">
  <title>Layer 1</title>
  <path d="m15.147,298.411c0,0 -37.062,-188.623 51.052,-225.094c88.113,-36.471 58.355,-77.732 109.224,-72.933c50.869,4.799 79.659,69.192 87.337,129.131c7.678,59.938 37.267,200.992 -11.915,217.081c-59.275,19.387 -67.324,79.991 -118.644,77.174c-99.483,-5.469 -117.054,-125.359 -117.054,-125.359z" fill="rgba(175, 216, 226, 0.13)" id="svg_1"/>
  <path d="m10.361,265.056l263.417,-2.232c0,0 -89.533,3.415 -90.404,32.471c-0.87,29.056 -11.33,54.015 -50.539,56.997c-39.208,2.982 -65.694,-44.859 -115.894,-44.596c-33.802,0.174 -6.58,-42.64 -6.58,-42.64z" fill="rgb(255,255,255)" id="svg_2"/>
  <path d="m278.599,263.717l-268.238,1.339c0,0 47.628,-58.823 88.341,-47.515c28.754,7.981 14.464,-42.962 54.584,-45.98c40.119,-3.017 3.817,28.57 55.177,28.32c34.588,-0.174 70.136,63.836 70.136,63.836z" fill="rgba(175, 216, 226, 0.21)" id="svg_3"/>
  <path d="m257.957,263.257l28.231,0c0,0 -2.745,-10.196 -11.37,-9.821c-8.625,0.375 -8.629,4.91 -8.629,4.91c0,0 -9.411,-0.58 -8.232,4.911z" fill="#AFD8E2" id="svg_4"/>
  <path d="m0,274.194l40.785,0c0,0 -0.786,-6.665 -5.491,-6.665c-4.706,0 -4.313,-15.687 -14.902,-16.071c-10.589,-0.383 -17.254,4.697 -20.392,22.736z" fill="#AFD8E2" id="svg_5"/>
 </g>
 <!-- inbox -->
 <g class="layer">
  <title>Layer 2</title>
  <g id="svg_6">
   <defs transform="translate(10 0) translate(0 10) translate(10 0) translate(10 0) translate(0 10) translate(0 10) translate(0 10) translate(0 10) translate(0 10) translate(0 10) translate(0 10) translate(0 10) translate(0 10) translate(0 10) translate(0 10) translate(0 10) translate(0 10) translate(0 10) translate(0 10) translate(0 10) translate(0 10) translate(10 0) translate(10 0) translate(10 0) translate(10 0) translate(10 0) translate(10 0) translate(-1 0)">
    <linearGradient gradientTransform="rotate(0, 0.5, 0.5)" id="idadoch3Qahg91">
     <stop offset="0" stop-color="#AFD8E2"/>
     <stop offset="1" stop-color="#AFD8E2"/>
    </linearGradient>
   </defs>
   <path d="m142.011,297.04l24.905,4.804l0,-41.484l27.084,0l0,-37.15c0,0 -1.307,-18.347 -24.026,-21.844c-17.376,-2.669 -44.231,-0.33 -55.995,-0.08c-5.178,0.11 -9.673,1.766 -14.133,4.18c-3.108,1.681 -10.696,11.11 -10.696,15.415l0,39.479l52.328,0.434l0.533,36.246z" fill="url(#idadoch3Qahg91)" id="svg_7"/>
  </g>
  <path d="m89.15,260.36l45.692,0.379l0,-33.967c0.018,-4.76 -1.308,-9.429 -3.826,-13.469c-3.308,-5.243 -9.165,-10.91 -19.097,-11.089c-18.599,-0.349 -22.919,19.235 -22.919,19.235l0.15,38.911z" fill="rgb(0,0,0)" id="svg_8" opacity="0.1"/>
  <g id="svg_9">
   <defs transform="translate(10 0) translate(0 10) translate(10 0) translate(10 0) translate(0 10) translate(0 10) translate(0 10) translate(0 10) translate(0 10) translate(0 10) translate(0 10) translate(0 10) translate(0 10) translate(0 10) translate(0 10) translate(0 10) translate(0 10) translate(0 10) translate(0 10) translate(0 10) translate(0 10) translate(10 0) translate(10 0) translate(10 0) translate(10 0) translate(10 0) translate(10 0)">
    <linearGradient gradientTransform="rotate(0, 0.5, 0.5)" id="idsLIFGf8Zjg1673362146">
     <stop offset="0" stop-color="rgb(248,177,75)"/>
     <stop offset="1" stop-color="rgb(247,29,105)"/>
    </linearGradient>
   </defs>
   <path d="m139.14,180l18.728,0l0,43.061l-3.687,0l-0.294,-31.413l-14.747,0.499l0,-12.147z" fill="url(#idsLIFGf8Zjg1673362146)" id="svg_10"/>
  </g>
 </g>
</svg>