<?xml version="1.0"?>
<svg width="286" height="213" xmlns="http://www.w3.org/2000/svg" xmlns:svg="http://www.w3.org/2000/svg">
 <g class="layer">
  <title>Layer 1</title>
  <g id="svg_1" transform="translate(0 -0.002)">
   <path d="m4.388,94.234c0,0 -24.568,-79.059 42.558,-83.029c67.125,-3.969 54.761,16.911 114.374,4.012c59.612,-12.898 60.616,-21.825 91.672,-8.929c31.057,12.895 33.052,46.129 26.552,62.993c-6.5,16.865 -19.537,30.256 -18.537,39.681c1.001,9.425 22.066,33.662 24.85,50.028c1.531,8.935 -2.916,24.175 -7.072,24.824c-30.888,4.933 -154.93,-3.183 -154.93,-3.183l-72.001,-3.182l-38.539,-5.249c0,0 1.32,-22.103 1.191,-39.58c-0.132,-17.908 -10.118,-38.386 -10.118,-38.386z" fill="#E1EEF3" id="svg_2"/>
   <path d="m13.456,169.764c0,0 -8.397,34.693 37.679,32.334c46.077,-2.359 45.529,-7.476 74.602,1.573c29.073,9.049 47.175,12.593 69.666,5.508c22.49,-7.084 23.038,-5.909 51.557,-5.909c28.52,0 38.285,-30.427 39.029,-34.58c0.878,-4.896 -1.175,-20.956 -5.252,-21.005c-30.144,-0.367 -216.859,-1.931 -231.579,2.143c-12.648,3.494 -27.849,15.104 -35.16,18.198" fill="rgba(220, 230, 234, 0.62)" id="svg_3"/>
  </g>
  <g id="svg_4" transform="translate(0.043 11.286)">
   <path d="m18.922,128.025l28.461,-11.629l0.49,-116.396c0,0 -20.994,1.334 -29.257,9.291l0.306,118.734z" fill="rgba(225, 238, 243, 0.16)" id="svg_5"/>
   <path d="m18.616,9.291l0.695,118.581l-4.979,2.065c0,0 0.71,-5.395 -0.515,-17.109c-1.126,-10.919 -12.694,-37.413 -13.563,-47.536c-0.612,-7.177 -0.272,-36.465 6.886,-45.159c6.607,-8.024 11.476,-10.842 11.476,-10.842z" fill="rgba(225, 238, 243, 0.3)" id="svg_6"/>
   <path d="m27.27,40.785c-0.392,-2.248 1.923,-4.529 5.17,-5.094c3.247,-0.566 6.197,0.798 6.588,3.046c0.392,2.248 -1.923,4.528 -5.17,5.094c-3.247,0.565 -6.197,-0.799 -6.588,-3.046z" fill="rgb(255,255,255)" id="svg_7"/>
   <path d="m35.117,39.35c-0.32,-1.834 1.569,-3.694 4.218,-4.155c2.65,-0.462 5.056,0.651 5.375,2.484c0.32,1.833 -1.569,3.693 -4.218,4.154c-2.65,0.462 -5.056,-0.65 -5.375,-2.483z" fill="rgb(255,255,255)" id="svg_8"/>
   <path d="m0.336,55.165c-0.392,-2.248 1.923,-4.528 5.17,-5.094c3.247,-0.565 6.196,0.798 6.588,3.046c0.392,2.248 -1.923,4.529 -5.17,5.094c-3.247,0.566 -6.197,-0.798 -6.588,-3.046z" fill="rgb(255,255,255)" id="svg_9"/>
   <path d="m7.266,51.895c-0.319,-1.833 1.569,-3.693 4.219,-4.155c2.649,-0.461 5.055,0.651 5.375,2.484c0.319,1.833 -1.57,3.693 -4.219,4.155c-2.649,0.461 -5.056,-0.651 -5.375,-2.484z" fill="rgb(255,255,255)" id="svg_10"/>
   <path d="m21.046,7.372l1.444,-0.805l0.068,-0.034l0.9,-0.449l0.859,-0.389l1.396,119.517l-2.993,1.243l-1.674,-119.083z" fill="rgb(255,255,255)" id="svg_11"/>
   <path d="m10.075,98.014l-0.334,-1.126c-0.052,0.039 -0.26,-0.817 -0.278,-0.833l-0.383,-0.918l-0.346,-0.997l38.827,-14.668l0.128,3.262l-37.614,15.28z" fill="rgb(255,255,255)" id="svg_12"/>
   <path d="m0.63,67.816l-0.11,-0.658c-0.073,-0.193 -0.156,-0.951 -0.22,-1.132l-0.159,-1.255l-0.141,-0.918l47.882,-18.299l-0.144,3.213l-47.108,19.049z" fill="rgb(255,255,255)" id="svg_13"/>
  </g>
  <g id="svg_14" transform="translate(125.504 78.69)">
   <path d="m4.698,43.759c1.031,-1.339 1.705,-2.919 1.955,-4.59c0.282,-2.035 1.02,-4.63 2.886,-6.408c2.837,-2.709 3.257,-14.077 3.315,-18.294c0.015,-1.593 0.266,-3.175 0.743,-4.694c0.848,-2.666 2.583,-6.356 5.95,-8.137c3.43,-1.815 14.383,-2.559 17.578,0.101c6.504,5.425 5.595,12.546 5.696,13.676c0.492,5.33 0.189,9.22 2.901,12.565c2.711,3.344 5.778,7.436 4.979,11.579c-0.799,4.144 6.335,10.255 -1.472,12.804c-7.807,2.549 -15.785,4.312 -24.483,3.617c-7.706,-0.612 -18.242,-1.864 -20.314,-6.962c-1.029,-2.549 -0.511,-4.223 0.266,-5.257z" fill="#CFE4EC" id="svg_15"/>
   <path d="m6.641,43.095c0.361,-0.52 0.83,-1.298 1.662,-1.705c0.832,-0.407 2.5,-1.6 10.727,1.79c11.748,4.845 21.422,-1.064 22.34,-1.181c0.918,-0.116 9.215,-2.717 8.985,2.718c-0.229,5.435 -10.022,8.391 -13.015,8.51c-2.993,0.119 -15.321,1.301 -21.423,-0.471c-6.102,-1.772 -8.425,-4.11 -8.838,-4.692c-0.453,-0.636 -1.962,-2.778 -0.438,-4.969z" fill="rgb(186,197,244)" id="svg_16"/>
   <path d="m50.811,82.635l-0.419,0c-0.559,0.011 -1.098,-0.206 -1.493,-0.601c-0.396,-0.395 -0.614,-0.933 -0.603,-1.492l0.045,-2.61c0.006,-0.315 0.199,-0.596 0.49,-0.713l0.193,-0.077c0.264,-0.104 0.451,-0.344 0.488,-0.626c0.036,-0.282 -0.084,-0.562 -0.314,-0.73c-0.126,-0.085 -0.263,-0.155 -0.407,-0.208c-1.276,-0.483 -3.978,-2.053 -11.069,-2.778c-3.868,-0.395 -5.857,-0.524 -6.867,-0.56c-0.24,-0.009 -0.463,-0.128 -0.604,-0.322c-0.142,-0.194 -0.186,-0.442 -0.122,-0.673c0.105,-0.372 0.465,-0.612 0.848,-0.566c2.5,0.306 11.351,1.386 14.234,2.066c1.711,0.43 3.346,1.124 4.844,2.056c0.582,0.37 0.966,0.983 1.044,1.668c0.02,0.233 0.143,0.446 0.336,0.578c0.285,0.198 0.593,0.358 0.919,0.478c0.483,0.162 0.468,1.879 0.373,3.268c-0.066,1.017 -0.897,1.816 -1.916,1.842z" fill="rgb(162,183,237)" id="svg_17"/>
   <path d="m27.975,57.227l-0.061,23.168c0,0.304 -0.247,0.551 -0.551,0.551l-0.123,0c-0.148,0 -0.291,0.06 -0.395,0.167c-0.103,0.106 -0.16,0.25 -0.155,0.399l0.097,3.911c0.025,0.962 0.804,1.734 1.766,1.75l1.224,0.019c0.506,0.009 0.994,-0.19 1.348,-0.552c0.354,-0.361 0.543,-0.852 0.522,-1.358l-0.14,-3.804c-0.01,-0.297 -0.254,-0.532 -0.551,-0.532c-0.147,0 -0.288,-0.059 -0.391,-0.163c-0.103,-0.103 -0.161,-0.244 -0.16,-0.391l0.064,-23.759c0.001,-0.148 -0.058,-0.29 -0.162,-0.394c-0.105,-0.104 -0.247,-0.162 -0.395,-0.16l-1.405,0c-0.15,0.001 -0.293,0.062 -0.396,0.171c-0.103,0.109 -0.158,0.255 -0.151,0.404l0.015,0.573z" fill="rgb(162,183,237)" id="svg_18"/>
   <path d="m27.993,74.021c0,0 -18.72,7.537 -21.673,10.037c-2.953,2.5 -3.437,4.082 -3.302,4.752c0,0.071 0.113,0.123 0.257,0.157c0.73,0.203 1.226,0.879 1.203,1.637l-0.068,3.941c-0.011,0.608 -0.506,1.094 -1.114,1.096l-2.111,0c-0.61,0 -1.107,-0.489 -1.117,-1.099l-0.068,-3.917c-0.016,-0.835 0.589,-1.553 1.414,-1.68l0.037,0c0,0 0.734,-2.962 1.87,-3.978c1.135,-1.016 3.127,-3.284 10.965,-6.693c7.838,-3.409 13.701,-5.557 13.701,-5.557l0.006,1.304z" fill="rgb(186,197,244)" id="svg_19"/>
   <path d="m30.374,73.73c-0.003,0.25 0.146,0.476 0.377,0.572c2.57,1.102 17.511,7.562 20.063,9.845c2.794,2.5 3.25,4.082 3.125,4.752c-0.028,0.153 -0.441,0.214 -0.811,0.236c-0.335,0.016 -0.594,0.299 -0.582,0.633l0.068,4.18c0.015,0.992 0.823,1.788 1.815,1.788l0.529,0c0.982,0 1.783,-0.787 1.799,-1.769l0.071,-4.165c0.003,-0.306 -0.221,-0.568 -0.524,-0.612l-0.462,-0.077c-0.242,-0.036 -0.439,-0.213 -0.502,-0.449c-0.226,-0.836 -0.835,-2.807 -1.67,-3.602c-1.075,-1.022 -2.96,-3.284 -10.378,-6.693c-5.683,-2.61 -10.243,-4.477 -12.061,-5.202c-0.192,-0.083 -0.413,-0.062 -0.586,0.056c-0.174,0.118 -0.274,0.316 -0.268,0.525l-0.003,-0.018z" fill="rgb(186,197,244)" id="svg_20"/>
  </g>
  <g id="svg_21" transform="translate(31.818 105.955)">
   <path d="m21.422,64.263l0.306,-53.246l7.039,0l0,53.552l-7.345,-0.306zm162.529,-54.195l0.282,54.807l6.12,0l0.135,-54.584l-6.537,-0.223z" fill="rgb(255,255,255)" id="svg_22"/>
   <path d="m0,4.59l0,6.427l210.552,-0.612l0,-5.509l-210.552,-0.306z" fill="rgb(255,255,255)" id="svg_23"/>
   <path d="m0,4.59l14.996,-4.59l178.418,0.306l17.138,4.59l-210.552,-0.306z" fill="#CFE4EC" id="svg_24"/>
   <path d="m95.63,2.812l3.528,-2.148l16.251,-0.107l-2.452,2.087l-17.327,0.168z" fill="rgb(248,248,255)" id="svg_25"/>
  </g>
  <g id="svg_26" transform="translate(36.408 77.371)">
   <path d="m10.124,17.231c0,0 -2.659,-0.122 -3.002,0.734c-0.343,0.857 0.612,12.547 1.028,13.239c0.416,0.691 4.655,0.893 5.855,0.893c0,0 4.44,-0.395 4.657,-0.697c0.218,-0.303 3.229,-12.391 2.244,-14.007c-0.986,-1.616 -10.629,-0.122 -10.629,-0.122" fill="rgb(233,237,252)" id="svg_27"/>
   <path d="m6.905,19.979c0,0 8.263,0.633 9.239,0.355c0.976,-0.278 0.655,-2.754 0.655,-2.754l4.107,-0.184c0,0 0,2.381 -0.279,2.663c-0.31,0.372 -0.548,0.8 -0.701,1.26c0,0.141 -1.735,10.267 -1.735,10.267c0,0 -2.659,0.41 -3.011,0.367c-0.416,-0.052 1.108,-8.375 1.108,-8.954c0,-0.578 0,-1.68 -0.42,-1.68c-0.419,0 -8.52,0.245 -8.569,-0.661c-0.07,-0.255 -0.206,-0.487 -0.394,-0.673" fill="#CFE4EC" id="svg_28"/>
   <path d="m10.158,17.494c0,0 -2.305,-1.619 -3.529,-1.766c-1.224,-0.146 -2.65,-0.302 -3.874,-0.495c-1.224,-0.193 -2.785,-0.738 -2.755,-1.454c0.031,-0.716 0.178,-1.059 0.897,-1.484c0.607,-0.395 1.294,-0.649 2.011,-0.744c0.538,-0.049 6.065,1.387 8.37,4.817l0.918,1.126l-2.038,0z" fill="rgb(186,196,246)" id="svg_29"/>
   <path d="m2.186,13.495c0,0 2.117,-0.028 3.277,0.348c0.908,0.339 1.788,0.748 2.632,1.224l3.467,2.415" fill="rgb(186,196,246)" id="svg_30"/>
   <path d="m2.186,13.495c0,0 2.117,-0.028 3.277,0.348c0.908,0.339 1.788,0.748 2.632,1.224l3.467,2.415" fill="transparent" id="svg_31" stroke="rgb(255,255,255)" stroke-linecap="round" stroke-miterlimit="10" stroke-width="0.75"/>
   <path d="m12.591,17.402c0,0 -2.681,-3.641 -3.725,-4.666c-1.043,-1.026 -2.264,-2.198 -3.271,-3.269c-1.007,-1.071 -2.277,-2.607 -1.742,-3.237c0.536,-0.631 0.919,-1.059 1.895,-0.918c0.763,0.081 1.494,0.352 2.127,0.786c0.541,0.349 5.407,4.991 6.12,10.325l0.701,1.08l-2.105,-0.101z" fill="#CFE4EC" id="svg_32"/>
   <path d="m6.289,7.469c0,0 2.088,1.249 2.908,2.448c0.774,1.12 2.001,3.125 2.001,3.125l1.393,3.822" fill="transparent" id="svg_33" stroke="rgb(255,255,255)" stroke-linecap="round" stroke-miterlimit="10" stroke-width="0.75"/>
   <path d="m13.925,17.568c0,0 -3.131,-6.797 -3.715,-8.14c-0.585,-1.344 -2.975,-3.367 -3.504,-4.738c-0.53,-1.37 -0.866,-2.368 -0.306,-3.121c0.56,-0.753 2.001,-1.377 2.916,-0.918c0.866,0.422 1.992,1.708 2.476,2.359c0.382,0.515 2.947,9.747 2.736,11.877l0.49,2.727l-1.093,-0.046z" fill="rgb(233,237,252)" id="svg_34"/>
   <path d="m8.41,3.185c0,0 1.797,2.313 2.341,3.672c0.612,1.53 1.225,4.446 1.145,3.978l1.876,6.295" fill="transparent" id="svg_35" stroke="rgb(255,255,255)" stroke-linecap="round" stroke-miterlimit="10" stroke-width="0.75"/>
   <path d="m12.208,17.531c0,0 -2.754,-3.143 -4.098,-3.752c-1.343,-0.609 -2.87,-1.297 -4.183,-1.952c-1.313,-0.655 -2.889,-1.766 -2.623,-2.433c0.266,-0.667 0.542,-0.936 1.487,-1.062c0.829,-0.14 1.678,-0.117 2.498,0.067c0.612,0.16 6.365,3.636 7.843,7.764l0.683,1.423l-1.607,-0.055z" fill="rgb(233,237,252)" id="svg_36"/>
   <path d="m3.844,9.96c0,0 2.384,0.783 3.566,1.585c0.901,0.66 1.756,1.382 2.558,2.161l2.647,3.862" fill="transparent" id="svg_37" stroke="rgb(255,255,255)" stroke-linecap="round" stroke-miterlimit="10" stroke-width="0.75"/>
   <path d="m19.412,17.601c0,0 2.494,-1.53 3.82,-1.686c1.325,-0.156 2.861,-0.288 4.186,-0.474c1.325,-0.187 3.014,-0.704 2.981,-1.389c-0.034,-0.686 -0.19,-1.01 -0.97,-1.42c-0.67,-0.382 -1.41,-0.623 -2.176,-0.71c-0.585,-0.046 -6.565,1.322 -9.059,4.59l-1.007,1.077l2.225,0.012z" fill="rgb(186,196,246)" id="svg_38"/>
   <path d="m28.042,13.779c0,0 -2.289,-0.027 -3.547,0.334c-0.975,0.319 -1.926,0.707 -2.846,1.163l-3.326,2.233" fill="rgb(186,196,246)" id="svg_39"/>
   <path d="m28.042,13.779c0,0 -2.289,-0.027 -3.547,0.334c-0.975,0.319 -1.926,0.707 -2.846,1.163l-3.326,2.233" fill="transparent" id="svg_40" stroke="rgb(255,255,255)" stroke-linecap="round" stroke-miterlimit="10" stroke-width="0.75"/>
   <path d="m16.783,17.513c0,0 2.899,-3.477 4.028,-4.456c1.129,-0.979 2.448,-2.099 3.541,-3.121c1.092,-1.022 2.463,-2.488 1.882,-3.094c-0.582,-0.606 -0.992,-1.013 -2.051,-0.885c-0.813,0.074 -1.6,0.33 -2.301,0.75c-0.585,0.331 -5.851,4.768 -6.623,9.86l-0.756,1.031l2.28,-0.085z" fill="rgb(186,196,246)" id="svg_41"/>
   <path d="m23.602,8.017c0,0 -2.259,1.19 -3.146,2.326c-0.839,1.071 -2.164,2.983 -2.164,2.983l-1.509,3.648" fill="transparent" id="svg_42" stroke="rgb(255,255,255)" stroke-linecap="round" stroke-miterlimit="10" stroke-width="0.75"/>
   <path d="m15.336,17.684c0,0 3.388,-6.491 4.018,-7.776c0.63,-1.285 3.22,-3.207 3.792,-4.523c0.572,-1.316 0.936,-2.264 0.336,-2.98c-0.599,-0.717 -2.163,-1.316 -3.155,-0.888c-0.936,0.404 -2.142,1.631 -2.681,2.252c-0.416,0.493 -3.188,9.306 -2.962,11.344l-0.529,2.605l1.181,-0.034z" fill="rgb(233,237,252)" id="svg_43"/>
   <path d="m15.014,17.601c0,0 0.273,-6.331 0.919,-8.391c0.437,-1.364 0.866,-3.672 1.438,-4.972c0.572,-1.301 -0.306,-3.012 -0.894,-3.731c-0.587,-0.719 -2.142,-0.581 -3.146,-0.156c-0.936,0.404 -1.475,1.711 -1.594,2.409c-0.107,0.636 2.142,8.277 1.903,11.074l0.193,3.807l1.181,-0.04z" fill="#CFE4EC" id="svg_44"/>
   <path d="m21.303,3.932c0,0 -1.943,2.209 -2.533,3.503c-0.668,1.466 -1.332,4.248 -1.225,3.789l-2.2,6.181" fill="transparent" id="svg_45" stroke="rgb(255,255,255)" stroke-linecap="round" stroke-miterlimit="10" stroke-width="0.75"/>
   <path d="m17.197,17.635c0,0 2.996,-3.002 4.431,-3.583c1.435,-0.582 3.106,-1.225 4.526,-1.864c1.42,-0.64 3.125,-1.686 2.837,-2.323c-0.288,-0.636 -0.584,-0.893 -1.61,-1.016c-0.897,-0.134 -1.812,-0.112 -2.702,0.065c-0.673,0.153 -6.886,3.47 -8.486,7.414l-0.738,1.359l1.742,-0.052z" fill="rgb(233,237,252)" id="svg_46"/>
   <path d="m26.246,10.407c0,0 -2.583,0.75 -3.859,1.512c-0.964,0.624 -1.884,1.313 -2.754,2.062l-2.92,3.238" fill="transparent" id="svg_47" stroke="rgb(255,255,255)" stroke-linecap="round" stroke-miterlimit="10" stroke-width="0.75"/>
   <path d="m14.384,1.704c0,0 0.517,5.425 0.217,6.885c-0.125,0.612 -0.064,4.428 -0.064,4.428l-0.107,4.245" fill="transparent" id="svg_48" stroke="rgb(255,255,255)" stroke-linecap="round" stroke-miterlimit="10" stroke-width="0.75"/>
  </g>
  <g id="svg_49" transform="translate(101.019 76.657)">
   <path d="m0,0l33.627,0l0,26.397l-33.627,0l0,-26.397z" fill="rgb(255,255,255)" id="svg_50"/>
   <path d="m14.081,13.407c0,-1.116 0.904,-2.02 2.019,-2.02c1.116,0 2.02,0.904 2.02,2.02c0,1.115 -0.904,2.019 -2.02,2.019c-1.115,0 -2.019,-0.904 -2.019,-2.019z" fill="rgb(245,245,252)" id="svg_51"/>
   <path d="m13.998,25.77c0,0 0.845,2.224 -0.119,2.849c-0.964,0.624 -6.917,2.971 -6.917,2.971c0,0 -0.44,0.707 0.612,0.933c0.94,0.205 13.01,0.043 15.608,0c0.371,0.026 0.718,-0.185 0.866,-0.526c0.061,-0.217 -0.015,-0.456 -0.477,-0.612c-0.799,-0.288 -3.737,-1.888 -5.022,-2.58c-0.453,-0.245 -0.576,-0.716 -0.664,-1.147c-0.147,-0.695 -0.257,-1.463 0.232,-1.61c0.765,-0.229 -4.073,0.07 -4.073,0.07" fill="rgb(255,255,255)" id="svg_52"/>
  </g>
  <g id="svg_53" transform="translate(84.505 46.71)">
   <path d="m5.013,27.238l87.471,-0.14l-0.178,-14.631l-92.251,0.713l-0.055,14.058l5.013,0z" fill="rgb(233,237,250)" id="svg_54"/>
   <path d="m48.767,15.093l0,10.074l41.155,-0.141l0,-9.793l-41.155,-0.14zm-43.993,0l0,10.074l41.156,-0.141l0,-9.793l-41.156,-0.14z" fill="#CFE4EC" id="svg_55"/>
   <path d="m4.777,17.519l2.145,0l0.022,7.672l-2.17,-0.024l0.003,-7.648z" fill="rgb(255,255,255)" id="svg_56"/>
   <path d="m6.962,18.863l1.445,0l0.052,6.295l-1.515,0.033l0.018,-6.328z" fill="rgb(245,245,252)" id="svg_57"/>
   <path d="m43.261,17.461l1.261,0l0.012,7.669l-1.273,-0.021l0,-7.648z" fill="rgb(255,255,255)" id="svg_58"/>
   <path d="m44.552,18.805l1.445,0l0.052,6.294l-1.515,0.031l0.018,-6.325zm-36.029,-0.928l1.445,0l0.052,7.299l-1.515,0.037l0.018,-7.336z" fill="rgb(245,245,252)" id="svg_59"/>
   <path d="m9.937,19.631l0.741,-0.594l3.748,5.475l-0.807,0.655l-3.682,-5.536zm17.499,5.499l9.022,0l-0.046,-1.013l-8.976,0.049l0,0.964z" fill="rgb(255,255,255)" id="svg_60"/>
   <path d="m28.954,24.139l9.025,0l-0.049,-1.013l-8.976,0.049l0,0.964z" fill="rgb(233,237,250)" id="svg_61"/>
   <path d="m50.211,17.152l1.267,0l0.012,8.073l-1.282,-0.025l0.003,-8.048z" fill="rgb(255,255,255)" id="svg_62"/>
   <path d="m51.506,18.872l1.441,0l0.052,6.292l-1.515,0.033l0.022,-6.325z" fill="rgb(245,245,252)" id="svg_63"/>
   <path d="m87.186,17.421l1.261,0l0.012,7.669l-1.273,-0.021l0,-7.648z" fill="rgb(255,255,255)" id="svg_64"/>
   <path d="m88.441,18.655l1.502,0.015l0.059,6.359l-1.537,0.021l-0.024,-6.395zm-2.696,0.639l1.444,0l0.058,5.793l-1.539,0.019l0.037,-5.812zm-36.991,-1.398l1.445,0l0.052,7.298l-1.515,0.037l0.018,-7.335z" fill="rgb(245,245,252)" id="svg_65"/>
   <path d="m63.722,19.652l0.741,-0.593l3.749,5.474l-0.808,0.655l-3.682,-5.536zm-6.114,5.499l9.025,0l-0.049,-1.012l-8.976,0.048l0,0.964z" fill="rgb(255,255,255)" id="svg_66"/>
   <path d="m57.112,24.197l9.022,0l-0.049,-1.013l-8.973,0.049l0,0.964zm35.289,-12.474l-0.089,-11.723l82.014,0l0.202,28.013l-82.057,0.67l-0.07,-15.916" fill="rgba(207, 228, 236, 0.99)" id="svg_67"/>
   <path d="m33.988,4.908c0,0 -0.789,-0.263 -0.854,-0.459c-0.064,-0.195 -0.327,-1.315 0.196,-1.315l4.474,0c0,0 0.723,1.184 -0.195,1.447c-0.919,0.263 -0.132,0.722 0.131,0.722c0.263,0 0.854,0 0.986,0.328c0.131,0.327 0.122,7.228 0.122,7.228l-6.635,0l0,-6.699c-0.003,-0.192 0.072,-0.378 0.208,-0.514c0.136,-0.136 0.322,-0.211 0.514,-0.208c0.726,-0.003 1.252,-0.199 1.053,-0.53z" fill="rgb(233,237,250)" id="svg_68"/>
   <path d="m33.192,7.562l4.655,0l0,2.885l-4.655,0l0,-2.885z" fill="rgb(255,255,255)" id="svg_69"/>
   <path d="m41.572,4.908c0,0 -0.79,-0.263 -0.854,-0.459c-0.064,-0.195 -0.328,-1.315 0.196,-1.315l4.474,0c0,0 0.722,1.184 -0.196,1.447c-0.918,0.263 -0.132,0.722 0.132,0.722c0.263,0 0.854,0 0.985,0.328c0.132,0.327 0.123,7.228 0.123,7.228l-6.635,0l0,-6.699c-0.004,-0.192 0.071,-0.378 0.208,-0.514c0.136,-0.136 0.321,-0.211 0.514,-0.208c0.747,-0.003 1.261,-0.199 1.053,-0.53z" fill="#CFE4EC" id="svg_70"/>
   <path d="m40.785,7.562l4.655,0l0,2.885l-4.655,0l0,-2.885z" fill="rgb(255,255,255)" id="svg_71"/>
   <path d="m49.425,4.826c0,0 -0.79,-0.263 -0.854,-0.459c-0.065,-0.196 -0.328,-1.316 0.196,-1.316l4.474,0c0,0 0.722,1.184 -0.196,1.447c-0.918,0.264 -0.132,0.723 0.132,0.723c0.263,0 0.853,0 0.985,0.327c0.132,0.328 0.122,7.228 0.122,7.228l-6.634,0l0,-6.699c-0.004,-0.192 0.071,-0.378 0.207,-0.514c0.137,-0.136 0.322,-0.211 0.515,-0.208c0.722,-0.003 1.248,-0.199 1.053,-0.529z" fill="rgb(233,237,250)" id="svg_72"/>
   <path d="m48.629,7.476l4.655,0l0,2.886l-4.655,0l0,-2.886z" fill="rgb(255,255,255)" id="svg_73"/>
   <path d="m95.223,2.849l37.893,0l0,23.141l-37.893,0l0,-23.141z" fill="hsl(197, 44%, 87%)" id="svg_74"/>
   <path d="m135.521,15.019c0,-0.912 0.74,-1.652 1.653,-1.652c0.912,0 1.652,0.74 1.652,1.652c0,0.913 -0.74,1.653 -1.652,1.653c-0.913,0 -1.653,-0.74 -1.653,-1.653z" fill="rgb(186,197,244)" id="svg_75"/>
   <path d="m120.529,18.049c0,0 -0.79,-0.263 -0.854,-0.459c-0.065,-0.196 -0.328,-1.316 0.196,-1.316l4.474,0c0,0 0.722,1.184 -0.196,1.447c-0.918,0.264 -0.132,0.723 0.132,0.723c0.263,0 0.853,0 0.985,0.327c0.132,0.327 0.122,7.228 0.122,7.228l-6.634,0l0,-6.702c-0.004,-0.192 0.071,-0.378 0.207,-0.514c0.137,-0.136 0.322,-0.211 0.515,-0.208c0.716,0 1.242,-0.199 1.053,-0.526z" fill="rgb(255,255,255)" id="svg_76"/>
   <path d="m119.724,20.699l4.654,0l0,2.886l-4.654,0l0,-2.886z" fill="rgb(245,245,252)" id="svg_77"/>
  </g>
 </g>
</svg>