<?xml version="1.0"?>
<svg width="77" height="205" xmlns="http://www.w3.org/2000/svg" xmlns:svg="http://www.w3.org/2000/svg">
 <g class="layer">
  <title>Layer 1</title>
  <g id="svg_1" transform="translate(-0.003 132.551)">
   <path d="m75.477,69.883c-1.097,-0.738 -2.388,-1.68 -5.598,-2.335c-2.623,-0.492 -4.189,-4.793 -4.189,-4.793l-6.107,0c0,0 -0.548,7.128 -0.274,7.701c0.274,0.574 0.431,1.188 1.84,1.639c1.409,0.45 13.78,0.286 14.328,0.163c0.548,-0.122 2.074,-0.983 0,-2.375z" fill="#CFE4EC" id="svg_2"/>
   <path d="m4.466,1.354c-0.822,1.269 -4.424,13.64 -4.463,14.254c-0.039,0.615 0.274,2.376 2.153,0.738c1.018,-0.902 2.271,-1.885 3.797,-4.916c1.253,-2.458 5.637,-2.744 5.637,-2.744l1.879,-6.063c0,0 -6.341,-2.703 -6.968,-2.621c-0.626,0.082 -1.213,0.082 -2.035,1.352z" fill="#CFE4EC" id="svg_3"/>
  </g>
  <g id="svg_4">
   <defs>
    <linearGradient gradientTransform="rotate(0, 0.5, 0.5)" id="idcQC9AI6Fbg-1048901417">
     <stop offset="0" stop-color="#CFE4EC"/>
     <stop offset="1" stop-color="rgb(88,202,234)"/>
    </linearGradient>
   </defs>
   <path d="m44.666,111.457c-0.157,0.041 -0.353,1.229 -0.392,1.393c-0.9,3.031 -9.395,30.066 -9.395,31.213c0,1.147 -18.203,-7.455 -21.139,-8.807c-0.235,-0.123 -0.47,0 -0.587,0.205c-0.587,1.31 -2.27,5.202 -1.683,5.652c0.744,0.533 19.886,14.829 21.452,15.238c1.566,0.41 3.914,2.458 7.829,-2.458c3.367,-4.219 12.762,-20.194 15.384,-24.659c0.118,-0.204 0.392,-0.286 0.588,-0.163c0.117,0.082 0.195,0.204 0.234,0.368c0.47,4.301 0.666,20.973 2.036,25.438c1.37,4.464 -0.587,9.257 -0.587,15.811l1.135,24.126c0,0.246 0.196,0.451 0.431,0.451l5.284,0.123c0.235,0 0.431,-0.164 0.47,-0.41c0.352,-3.891 3.836,-33.056 4.189,-37.603c0.391,-4.915 2.662,-46.164 2.035,-48.662c-0.469,-1.557 -24.388,2.253 -27.284,2.744z" fill="url(#idcQC9AI6Fbg-1048901417)" id="svg_5"/>
  </g>
  <g id="svg_6">
   <defs>
    <linearGradient gradientTransform="rotate(0, 0.5, 0.5)" id="idqZgy1Kabrg1003057632">
     <stop offset="0" stop-color="rgb(248,123,88)"/>
     <stop offset="1" stop-color="rgb(248,156,81)"/>
    </linearGradient>
   </defs>
   <path d="m46.623,38.832c0,0 1.331,-5.571 2.388,-5.571c1.057,0 7.477,0.819 8.26,4.752c0.783,3.932 3.718,6.144 3.718,10.895c0,4.752 1.879,6.964 1.879,6.964c0,0 2.114,-7.005 3.68,-10.036c1.566,-3.031 4.345,-4.956 4.345,-7.004c0,-2.048 -2.348,-25.315 -2.544,-25.929c-0.196,-0.614 -0.783,-4.301 0.587,-6.39c0,0 4.228,-3.646 4.776,-5.12c0.431,-1.229 1.801,-1.926 2.584,-0.492c0.782,1.434 -2.467,5.325 -3.015,6.882c-0.469,1.474 -0.822,2.99 -0.978,4.547c0,0.409 -0.783,6.594 -0.783,9.666c0,3.073 1.761,12.781 1.761,15.853c0,3.072 -6.498,15.401 -7.085,17.695c-0.587,2.294 -19.495,23.881 -19.886,24.495c-0.392,0.615 -2.349,5.366 -2.349,7.005c0,1.638 0,7.004 0.783,5.98c0.783,-1.024 4.032,-9.216 4.619,-10.24c0.587,-1.024 5.246,-2.007 7.438,-2.622c2.192,-0.614 5.402,0.615 5.011,2.048c-0.392,1.434 -6.773,4.137 -8.808,4.67c-1.292,0.328 -6.89,6.8 -7.281,8.643c-0.392,1.843 -5.52,-0.819 -5.52,-3.482c0,-2.662 0.587,-16.262 1.37,-18.105c0.783,-1.843 4.345,-9.872 6.303,-14.009c1.957,-4.137 -2.349,-6.185 -3.132,-9.052c-0.783,-2.868 1.879,-12.043 1.879,-12.043z" fill="url(#idqZgy1Kabrg1003057632)" id="svg_7"/>
  </g>
  <g id="svg_8">
   <defs>
    <linearGradient gradientTransform="rotate(-36.10985746027036, 0.5, 0.5)" id="idsxYxWYnH9g-1048901448">
     <stop offset="0" stop-color="#CFE4EC"/>
     <stop offset="1" stop-color="rgb(88,202,234)"/>
    </linearGradient>
   </defs>
   <path d="m63.534,51.981c0,0 5.128,-9.627 5.637,-12.043c0.509,-2.417 -0.783,-27.117 -0.783,-27.117l3.954,-0.614c0,0 3.797,22.897 4.306,25.56c0.509,2.662 -1.331,8.397 -3.093,11.633c-1.761,3.236 -6.615,16.794 -6.615,18.392c0,1.597 0.313,16.794 1.096,19.743c0.783,2.95 3.953,21.26 3.953,21.26l-27.402,2.703c0,0 1.214,-7.988 1.136,-10.65c-0.196,-5.858 -1.723,-10.2 2.348,-12.944c2.74,-1.802 5.324,-0.942 8.26,-2.458c3.406,-1.761 4.189,-3.195 4.384,-4.178c0.118,-0.573 -0.743,-1.884 -6.028,0.164c-1.762,0.696 -5.324,0.655 -5.402,3.031c-0.039,2.007 2.427,6.349 -0.548,8.315c0,0 -3.406,8.398 -6.577,9.708c-2.74,1.106 -5.989,-1.925 -5.911,-5.898c0.078,-4.752 0.352,-13.845 2.427,-17.818c2.075,-3.974 7.751,-14.173 8.769,-14.992c1.018,-0.82 4.11,3.072 7.712,2.539c3.601,-0.532 5.089,-2.294 5.872,-4.137c0.783,-1.843 2.505,-10.199 2.505,-10.199z" fill="url(#idsxYxWYnH9g-1048901448)" id="svg_9"/>
  </g>
  <g id="svg_10">
   <defs>
    <linearGradient gradientTransform="rotate(0, 0.5, 0.5)" id="idNU6XZMTjOg-1200655823">
     <stop offset="0" stop-color="rgb(229,164,237)"/>
     <stop offset="1" stop-color="rgb(122,91,245)"/>
    </linearGradient>
   </defs>
   <path d="m52.103,34.49c1.605,2.703 3.68,5.038 6.107,6.963c4.15,3.359 0.039,12.698 -0.156,17.368c-0.157,3.728 1.957,8.889 7.085,12.371c3.68,2.539 1.096,8.274 1.096,11.141c0,2.868 5.95,-4.055 6.185,-7.332c0.274,-4.055 -0.705,-6.922 -3.445,-10.199c-2.544,-3.073 -5.519,-14.583 -6.341,-20.031c-0.079,-0.573 -0.118,-1.106 -0.079,-1.679c0.079,-1.925 -0.156,-8.029 -5.402,-11.469c-6.263,-4.097 -10.178,-0.328 -12.722,1.925c-3.093,2.744 -4.346,10.404 -3.563,22.283c0.783,11.879 -1.174,18.638 -2.505,22.078c-3.053,7.824 5.246,2.335 6.772,-2.171c1.958,-5.775 3.328,-6.226 6.107,-10.732c1.096,-1.761 -0.352,-7.741 -1.566,-10.24c-2.309,-4.834 -3.64,-6.841 -3.64,-10.118c0,-3.277 3.719,-8.929 6.067,-10.158z" fill="url(#idNU6XZMTjOg-1200655823)" id="svg_11"/>
  </g>
  <path d="m53.317,55.708c0,0 4.423,0.287 5.637,-2.662c0.117,-0.328 -0.705,9.011 -0.94,7.782c-0.313,-1.27 -4.697,-5.12 -4.697,-5.12z" fill="rgb(0,0,0)" id="svg_12" opacity="0.07"/>
  <path d="m45.527,77.295c0,0 -1.018,6.636 -1.566,9.667c-0.313,1.638 -0.509,3.277 -0.548,4.956c0,0 3.758,-4.915 4.971,-6.881c0.744,-1.229 -1.526,-0.615 -1.722,-5.121c-0.196,-4.505 -0.157,-7.414 -0.157,-7.414l-0.978,4.793z" fill="rgb(0,0,0)" id="svg_13" opacity="0.07"/>
  <path d="m45.84,98.636c0,0 3.367,-3.441 3.523,-5.243c0.196,-2.376 1.801,-2.253 1.801,-0.778c0,1.474 -2.506,12.493 -0.979,15.401c1.527,2.909 2.74,2.868 2.74,2.868l-8.22,0.614l1.135,-12.862z" fill="rgb(0,0,0)" id="svg_14" opacity="0.07"/>
  <path d="m52.886,110.843c0,0 0.47,8.765 -2.505,11.674c-6.068,5.939 -2.505,13.722 -5.207,17.122c-2.27,2.826 -2.857,10.978 -8.298,12.78c-2.154,0.737 -9.904,-4.219 -11.47,-4.793c-3.328,-1.188 -5.676,-7.864 -16.05,-11.305c-2.427,-0.819 6.381,0.041 6.381,0.041l19.103,8.274l9.865,-33.138l8.181,-0.655z" fill="rgb(0,0,0)" id="svg_15" opacity="0.07"/>
 </g>
</svg>